<svg width="25" height="25" viewBox="0 0 25 25" fill="none" xmlns="http://www.w3.org/2000/svg">
<path d="M9.75 4.86367C10.6615 4.57373 11.6604 4.40405 12.75 4.40405C16.9319 4.40405 19.778 6.90361 21.4751 9.10838C22.325 10.2126 22.75 10.7647 22.75 12.4041C22.75 14.0434 22.325 14.5955 21.4751 15.6997C19.778 17.9045 16.9319 20.4041 12.75 20.4041C8.56811 20.4041 5.72196 17.9045 4.02489 15.6997C3.17496 14.5955 2.75 14.0434 2.75 12.4041C2.75 10.7647 3.17496 10.2126 4.02489 9.10838C4.50612 8.4832 5.07973 7.83431 5.75 7.22542" stroke="#1C274C" stroke-width="1.5" stroke-linecap="round"/>
<path d="M15.75 12.4041C15.75 14.0609 14.4069 15.4041 12.75 15.4041C11.0931 15.4041 9.75 14.0609 9.75 12.4041C9.75 10.7472 11.0931 9.40405 12.75 9.40405C14.4069 9.40405 15.75 10.7472 15.75 12.4041Z" stroke="#1C274C" stroke-width="1.5"/>
</svg>
